<?xml version="1.0" encoding="utf-8"?>
<!-- Generator: Adobe Illustrator 15.1.0, SVG Export Plug-In . SVG Version: 6.00 Build 0)  -->
<!DOCTYPE svg PUBLIC "-//W3C//DTD SVG 1.1//EN" "http://www.w3.org/Graphics/SVG/1.1/DTD/svg11.dtd">
<svg version="1.1" id="Layer_1" xmlns="http://www.w3.org/2000/svg" xmlns:xlink="http://www.w3.org/1999/xlink" x="0px" y="0px"
	 width="100px" height="38.289px" viewBox="2.394 30.528 100 38.289" enable-background="new 2.394 30.528 100 38.289"
	 xml:space="preserve">
<path d="M-469.146-302.19c0.086-0.069,2.832-2.292,3.472-2.749C-466.986-304.06-468.145-303.112-469.146-302.19z"/>
<path d="M-465.564-305.013c-0.022,0.013-0.06,0.038-0.11,0.074c0.039-0.026,0.077-0.052,0.116-0.077
	C-465.56-305.015-465.564-305.013-465.564-305.013z"/>
<path d="M-469.15-302.187c-0.004,0.004-0.011,0.011-0.018,0.018c0.007-0.007,0.014-0.015,0.021-0.021
	C-469.147-302.189-469.15-302.187-469.15-302.187z"/>
<g>
	<path d="M50.846,35.549C34.157,38.261,32.063,47.04,32.063,47.04c-3.828,5.983-5.265,1.678-5.265,1.678
		c-1.482-2.142-3.565-3.574-5.901-4.517c-0.087,0.019-8.274,1.712-15.395,24.616c15.315-0.959,21.537-12.205,21.537-12.205
		c3.111-4.069,5.266,0.717,5.266,0.717c0.135,0.159,0.272,0.313,0.412,0.464C34.106,58.945,39.209,60.272,50.846,35.549z"/>
	<path d="M15.616,42.859c-0.016-0.002-0.031-0.003-0.045-0.006C15.585,42.856,15.599,42.857,15.616,42.859z"/>
	<path d="M15.515,42.845c-0.004,0-0.007,0-0.011,0C15.508,42.845,15.513,42.845,15.515,42.845z"/>
	<path d="M15.571,42.854c-0.025-0.003-0.042-0.007-0.057-0.009C15.53,42.848,15.548,42.85,15.571,42.854z"/>
	<path d="M15.928,42.905c-0.02-0.003-0.042-0.008-0.065-0.009C15.884,42.897,15.906,42.901,15.928,42.905z"/>
	<path d="M15.862,42.896c-0.049-0.007-0.094-0.013-0.132-0.019C15.773,42.883,15.818,42.89,15.862,42.896z"/>
	<path d="M15.703,42.873c-0.031-0.004-0.061-0.008-0.086-0.013C15.645,42.865,15.67,42.868,15.703,42.873z"/>
	<path d="M15.73,42.877c-0.009-0.002-0.02-0.005-0.027-0.005C15.712,42.873,15.719,42.875,15.73,42.877z"/>
	<path d="M15.978,42.911c-0.016-0.003-0.034-0.004-0.05-0.006C15.946,42.907,15.962,42.908,15.978,42.911z"/>
	<path d="M16.104,42.93c-0.008-0.001-0.015-0.001-0.021-0.002C16.089,42.928,16.096,42.928,16.104,42.93z"/>
	<path d="M15.503,42.845c-0.003-0.001-0.008-0.001-0.008-0.001S15.5,42.844,15.503,42.845z"/>
	<path d="M16.083,42.927c-0.025-0.004-0.051-0.008-0.076-0.01C16.036,42.921,16.06,42.925,16.083,42.927z"/>
	<path d="M16.155,42.937c-0.019-0.003-0.034-0.006-0.051-0.007C16.133,42.933,16.155,42.937,16.155,42.937z"/>
	<path d="M16.006,42.917c-0.009-0.001-0.017-0.004-0.027-0.006C15.989,42.913,15.995,42.916,16.006,42.917z"/>
	<path d="M15.496,42.844C15.492,42.844,15.492,42.844,15.496,42.844L15.496,42.844z"/>
	<path d="M16.155,42.937c-7.989-1.142-13.761,0.517-13.761,0.517c0.125,6.814,0.982,13.495,1.766,18.29v-0.002
		C4.159,61.741,8.504,44.217,16.155,42.937z"/>
	<path d="M70.824,36.922c-6.203-2.897-16.27-1.846-16.27-1.846s-8.33,25.022-18.082,25.552c7.211,3.122,19.28,1.183,19.28,1.183
		c0.408-0.021,0.806-0.045,1.201-0.072c8.297-4.763,13.867-24.816,13.867-24.816C70.824,36.922,70.824,36.922,70.824,36.922z"/>
	<path d="M85.712,51.18L85.712,51.18c-0.012-0.007-0.025-0.009-0.036-0.015C85.688,51.171,85.7,51.178,85.712,51.18z"/>
	<path d="M99.305,30.528c-0.912,0.075-1.803,0.192-2.676,0.339c-6.012,18.714-10.895,20.304-10.917,20.311
		c7.565,2.779,16.461,0.848,16.461,0.848C103.371,40.499,99.305,30.528,99.305,30.528z"/>
	<path d="M63.202,60.771C62.933,60.889,63.587,60.676,63.202,60.771L63.202,60.771z"/>
	<path d="M78.244,39.624c-1.674,5.504-3.589,0.478-3.589,0.478c-0.324-0.536-0.579-0.724-0.579-0.724
		c-3.429,12.271-10.874,21.393-10.874,21.393c13.629-3.301,13.847-11.816,13.847-11.816c0.956-4.306,3.828-0.478,3.828-0.478
		c0.373,0.306,0.759,0.59,1.154,0.853c4.388-1.176,10.161-17.384,10.161-17.384C81.575,33.757,78.244,39.624,78.244,39.624z"/>
</g>
<polygon points="51.093,37.802 51.093,37.802 51.096,37.802 "/>
<polygon points="39.012,58.881 39.012,58.881 39.009,58.879 "/>
<path d="M35.566,56.2c-0.019-0.03-0.041-0.062-0.06-0.093C35.507,56.107,35.527,56.145,35.566,56.2z"/>
<path d="M35.853,56.497c-0.116-0.126-0.232-0.256-0.346-0.39c0.019,0.031,0.041,0.062,0.06,0.093
	C35.623,56.271,35.716,56.384,35.853,56.497z"/>
<path d="M80.368,50.93c-0.015-0.006-0.026-0.012-0.038-0.017C80.344,50.918,80.355,50.924,80.368,50.93z"/>
<polygon points="77.305,49.384 77.305,49.386 77.305,49.386 "/>
<path d="M80.545,33.808h-0.002H80.545z"/>
</svg>
