<svg xmlns="http://www.w3.org/2000/svg" xmlns:xlink="http://www.w3.org/1999/xlink" xmlns:a="http://ns.adobe.com/AdobeSVGViewerExtensions/3.0/" version="1.1" x="0px" y="0px" width="100px" height="100px" viewBox="-1.6 -14.5 100 100" enable-background="new -1.6 -14.5 100 100" xml:space="preserve">
<defs>
</defs>
<path d="M62.2,52.9c-1.5-0.2-2.2-3.2-3.9-3.7c-1.7-0.5-5.8,3.2-7.6,0C49,46.1,40.5,36.8,38.6,36.6c-1.9-0.2-13.6-4.9-18.3-4.6  c-4.6,0.2-8.5,7.6-11.2,7.3C6.4,39,3,36.3,1.3,37.8c-1.7,1.5-1.7,11.2,0,12.4c1.7,1.2,4.6-0.1,8,2c3.4,2.1,12.4,8.9,14.9,12.8  c1.8,2.9,8.1,6,12.2,7.1c-1-2.2-2.2-4.4-3.7-4.9c-3.2-1.1-10.5-11-13.3-13.3c-2.7-2.4,0.4-2,2.9,0c2.6,2,7.3,6.8,9.5,6.8  c-1.1-2.2-2.3-8.2-8.3-11.2c-2.8-1.4-11-3.7-19.5-2.8c5.7-2.9,10.3-1.8,10.3-1.8s-3-2.8-2.7-3.8c6.1,4.8,10.6,4.4,14.3,7.3  c-0.7-3.5-1.6-4.8-4.4-6.6c-2.7-1.8-2-2.2,2-0.7c4,1.5,0.4-2.3-2.9-4c-0.5-0.3,6.9,0.3,8.2,4.9c1.9-4.3,5.1-3.5,5.1-3.5  s-5.4,2.6-2.7,9.7c3.1-2.6,4.8-0.6,7.1-5.5c1.8,3.1-4.6,6.7-4,9.5c8.2-3.3,9-3,5.4,0.3c3-0.5,6.8-2.1,9.3-1.2  c-4.6,1.4-14.6,3-11.1,7.9c8.8,0,11.5-1.6,15.5-4.4c4-2.7,1.8,2.7-1.1,4.8c6.8-0.2,5.8,0.4,9,0c-0.2,0.9-7.3,4.4-10.1,4.2  c-2.7-0.2-7.1-0.4-6.6,1.3c0.4,1.1,2.7,4.9,4.3,7.4c0.3,0,0.5,0,0.5,0s4.3-2.7,6.6-3.8c7.5-3.8,8.8-8,9.6-9.7  C66.2,57.3,63.7,53.1,62.2,52.9z"/>
<path d="M81.3,34.7c0,0-0.2-4.9,1.5-5.5c1.6-0.5,3.8-5.8,1.5-6.4c-2.4-0.5-11.1,1.8-13.7,5.1c-2.6,3.3-6.8,10.4-9,11.5  c-2.2,1.1-9.9,2-9.9,2s-2,3.8,2,4.9c2.1,0.6,8,1.9,8.8,4.5c0.3,0.9,5.2,5.3,4.7,7.8c-1,4.8-4.2,7.2-9.3,10.3  c3.8,1.7,15.9-3.3,17.5-4.9c1.6-1.6-2.4-3.5-2.4-3.5s4.5-2.7,4.8-4.3c0.4-1.6,1-2.8-0.5-2.3c-1.5,0.5-4.3,2.4-6.9,1.7  c1.1-2,3.5-2.5,2.7-4.2c-3.8-1.6-4.8-1.6-5.7-1.8c1.1-1.9,6,0.1,8.8,0.3s1.7-2.7,0.6-3.4c-1.1-0.6-7.2-1.6-8.8-3.1  c1.9-0.9,3.9,0.9,7.5-0.5c3.6-1.4,3.9-3.3,2.3-3.8c-1.6-0.5-2.4-1.6-2.6-3.7c1.6,1.1,3.1,0.5,3.1,0.5s-2.6-6.8,0.2-8.6  c0.5,2.4,1.1,6.6,2,8.3S81.3,36,81.3,34.7z"/>
<path d="M65.3,2.6c-1.7,0.6-10.8,3.7-11.8,8.2c-1,4.5,1.7,1.4,4.1,3.2c2.4,1.8,12.5,8.8,13.2,10.9c1.6-2,10.7-5.8,13.6-5  c2.9,0.9,3.5,4.1,2.2,6.6c-1.3,2.4-2.8,2.6-3.3,4c-0.5,1.5-0.5,5.7,0,7.2c0.5,1.5,0.7,8.8,0.5,11.5c-0.2,2.7-0.6,3.8-0.2,5.5  c0.4,1.7,1.9-0.5,2.9-1.6s1.5-6.1,2.7-8.8c1.2-2.7,4.8-3.9,5-2.3c0.2,1.6,1.6,2,1.8-1.3c0.2-3.3,0-6.4-2.8-8.7  c-2.8-2.3-3.7-6.2-3-9.1c0.6-2.9-3.2-6.2-6.9-6.7c-3.8-0.5-8.9-3.2-11.5-5.5c-2.6-2.3-3.3-3.4-5.8-2.8C63.4,8.4,69,1.2,65.3,2.6z"/>
<path d="M61,2.4c0,0-10.5,5.7-10.5,8c0,2.3-16.8-2.1-27.7,15.7c-1,1.7-2.3,2.8-1.7,3.4c0.6,0.6-0.9-0.2-2.3,0  c-1.5,0.2-5.7,3.5-7.1,4.9c-1.3,1.3-6.2-3.1-4.5-5.6c1.7-2.5,3.3-4.9,3.3-6.9c0-2,1.8-7.8,5.8-8.9c4-1.1,6.5-2.4,8-4.9  c1.6-2.4,2.2-4,7-4.3c4.8-0.2,6.1-3.2,7.5-3.7c1.3-0.5,7.3-0.4,11.3,1.2C54.3,3.1,63.8,0.4,61,2.4z"/>
<path d="M30.3,32.2c0,0,5,1.1,6.8,2.4c1,0.7,2.1-0.8,2.6-2.7c0.5-1.9,5.7-4.5,6.8-5.1c1.1-0.6,5,0.7,5.2-2.7  c0.2-3.4,2.4-3.9,3.8-3.9c1.3,0,7.1,0.2,8.8,2.5c1-0.5,0.6-2.2-3.2-3.9c-3.8-1.7-8.4-1.7-9.9,2.2c-1.4,3.9-4.9,0.2-5.8,0.5  c-1,0.2-1.9,2.7-2.9,2.9C41.5,24.7,29.2,29.2,30.3,32.2z"/>
</svg>