<svg xmlns="http://www.w3.org/2000/svg" xmlns:xlink="http://www.w3.org/1999/xlink" version="1.1" x="0px" y="0px" width="100px" height="100px" viewBox="0 0 100 100" enable-background="new 0 0 100 100" xml:space="preserve">
<g id="Captions">
</g>
<g id="Your_Icon">
	<g>
		<path d="M99.361,64.721c0-2.679-2.171-4.721-4.85-4.721H25.944c-1.33-3-2.692-6.635-3.936-9.915    c-3.67-9.679-4.608-19.049-8.746-23.332c-5.968-6.176-6.929,7.023-4.354,8.806C10.186,36.443,15.566,48,20.926,60H4.85    C2.171,60,0,62.042,0,64.721c0,2.062,1.29,3.756,3.106,4.456c-0.218,0.757-0.334,1.556-0.334,2.471    c0,15.196,11.479,26.169,46.711,26.155c36.835-0.014,46.711-10.983,46.711-26.18c0-0.874-0.081-1.606-0.231-2.336    C97.933,68.67,99.361,66.894,99.361,64.721z"/>
		<path d="M27.568,29.437c0.242,3.204,9.402,4.98,9.942,8.147c0.498,2.932-6.659,6.973-6.521,9.941    c0.075,1.563,3.912,4.89,3.912,4.89s-1.831-3.724-1.711-5.052c0.262-2.879,6.034-7.243,5.622-10.104    c-0.626-4.351-6.037-4.053-5.704-8.312c0.225-2.856,5.704-6.029,5.704-9.941c0-3.91-11.245-6.845-11.245-6.845    s8.744,4.446,8.965,7.334C36.785,22.832,27.317,26.101,27.568,29.437z"/>
		<path d="M72.15,30.414c0.24,3.205,9.401,4.98,9.939,8.148c0.499,2.931-6.658,6.973-6.519,9.941    c0.075,1.562,3.911,4.888,3.911,4.888s-1.831-3.723-1.709-5.052c0.26-2.878,6.034-7.242,5.621-10.104    c-0.627-4.351-6.037-4.051-5.703-8.312c0.223-2.856,5.703-6.029,5.703-9.94c0-3.91-11.244-6.844-11.244-6.844    s8.744,4.445,8.963,7.332C81.366,23.809,71.898,27.077,72.15,30.414z"/>
		<path d="M48.426,24.113c0.296,3.916,11.493,6.087,12.15,9.959c0.609,3.581-8.14,8.521-7.968,12.149    c0.091,1.911,4.78,5.976,4.78,5.976s-2.238-4.552-2.091-6.175c0.32-3.519,7.376-8.853,6.872-12.35    c-0.767-5.316-7.379-4.951-6.972-10.157c0.273-3.492,6.972-7.37,6.972-12.15S48.426,3,48.426,3s10.688,5.435,10.956,8.962    C59.69,16.041,48.12,20.035,48.426,24.113z"/>
	</g>
</g>
</svg>