<svg xmlns="http://www.w3.org/2000/svg" xmlns:xlink="http://www.w3.org/1999/xlink" version="1.1" id="eggs" x="0px" y="0px" width="95px" height="95px" viewBox="0 0 95 95" enable-background="new 0 0 95 95" xml:space="preserve">
<path d="M21.172,62.392c0,0,11.632,6.609,22.867-1.058c0,0.132-3.965,14.011-11.434,14.672  C25.137,76.666,21.172,62.392,21.172,62.392z"/>
<path d="M6.5,55.981c0,0,8.129,6.592,13.433,4.708c-0.248,2.33,0.777,3.487,0.777,3.487S11.952,71.198,6.5,55.981z"/>
<path d="M44.039,65.002l1.52-4.758c0,0,10.112,1.09,13.383-2.479C59.637,58.191,54.877,71.049,44.039,65.002z"/>
<path d="M60.361,55.783l-1.354,5.056c0,0,11.433,4.163,14.506-7.832C70.144,56.873,60.361,55.783,60.361,55.783z"/>
<path d="M74.901,51.686c0,0-0.728,3.633-1.652,4.891c0,0,11.697,5.552,14.342-6.675C87.304,51.038,79.908,53.051,74.901,51.686z"/>
<path d="M42.093,51.632c-0.02-0.149-0.033-0.302-0.056-0.45c-0.242-1.558-0.686-3.045-1.283-4.412  c-0.396-0.914-0.863-1.768-1.385-2.553c-0.1-0.149-0.194-0.305-0.297-0.449c-0.095-0.132-0.198-0.251-0.295-0.378  c-0.008-0.01-0.016-0.021-0.024-0.03c-1.876-2.419-4.316-3.967-6.868-3.967c-1.661,0-3.233,0.555-4.632,1.529  c-0.118,0.081-0.233,0.168-0.348,0.257c-0.11,0.083-0.217,0.173-0.324,0.262c-0.691,0.573-1.333,1.249-1.911,2.024  c-0.126,0.17-0.246,0.349-0.366,0.527c-0.125,0.184-0.246,0.371-0.363,0.564c-1.401,2.312-2.301,5.238-2.439,8.468  c-0.078,1.832,0.074,3.433,0.451,4.794c0.037,0.131,0.084,0.251,0.125,0.378c0.042,0.128,0.083,0.257,0.128,0.381  c0.379,1.034,0.901,1.916,1.58,2.624c1.663,1.734,4.289,2.579,8.027,2.579c2.864,0,6.066-0.276,8.11-2.325  c1.011-1.015,1.684-2.402,2.038-4.192c0.027-0.139,0.047-0.287,0.071-0.432c0.024-0.145,0.052-0.283,0.072-0.434  c0.102-0.775,0.154-1.615,0.152-2.529c-0.001-0.608-0.046-1.211-0.109-1.809C42.13,51.917,42.112,51.774,42.093,51.632z"/>
<path d="M63.608,29.083c1.922,0,3.766,0.76,5.386,2.053c0.885-1.58,1.99-2.909,3.251-3.917c-1.911-4.024-5.175-6.859-8.637-6.859  c-3.364,0-6.374,2.25-8.281,5.744c1.313,1.202,2.447,2.769,3.318,4.576C60.145,29.663,61.828,29.083,63.608,29.083z"/>
<path d="M49.333,33.048c1.072,0,2.119,0.241,3.117,0.671c0.13,0.056,0.256,0.121,0.384,0.184c0.13,0.063,0.26,0.133,0.389,0.204  c0.516,0.283,1.016,0.612,1.496,0.994c0.885-1.58,1.99-2.909,3.251-3.917c-0.801-1.687-1.835-3.167-3.028-4.314  c-0.095-0.091-0.195-0.17-0.292-0.257c-0.107-0.095-0.213-0.191-0.321-0.281c-1.513-1.259-3.228-2.007-4.995-2.007  c-3.364,0-6.374,2.25-8.281,5.744c1.313,1.202,2.447,2.769,3.318,4.576C45.87,33.628,47.554,33.048,49.333,33.048z"/>
<path d="M31.885,38.6c2.368,0,4.616,1.153,6.47,3.041c0.167,0.17,0.337,0.334,0.498,0.516c0.062,0.07,0.12,0.148,0.181,0.221  c0.054-0.175,0.102-0.354,0.161-0.526c0.969-2.815,2.551-5.144,4.5-6.701c-0.801-1.687-1.835-3.167-3.028-4.314  c-0.095-0.091-0.196-0.17-0.292-0.257c-0.107-0.095-0.212-0.191-0.321-0.281c-1.513-1.259-3.228-2.007-4.996-2.007  c-4.397,0-8.189,3.837-9.7,9.284c0.587,0.795,1.11,1.678,1.565,2.623C28.423,39.18,30.106,38.6,31.885,38.6z"/>
<path d="M20.709,52.99c0.162-3.798,1.343-7.196,3.157-9.743c0.134-0.188,0.266-0.379,0.407-0.558  c0.127-0.162,0.263-0.313,0.396-0.466c0.492-0.567,1.019-1.076,1.577-1.522c-0.343-0.722-0.729-1.4-1.153-2.035  c-0.1-0.149-0.193-0.306-0.297-0.45c-0.102-0.142-0.213-0.271-0.319-0.408c-1.876-2.419-4.317-3.967-6.868-3.967  c-5.496,0-10.058,5.988-10.384,13.631c-0.157,3.681,0.611,6.432,2.283,8.177c1.663,1.735,4.289,2.579,8.027,2.579  c1.192,0,2.439-0.058,3.64-0.262C20.789,56.536,20.629,54.878,20.709,52.99z"/>
<path d="M77.883,25.911c-1.661,0-3.233,0.554-4.633,1.528c-0.117,0.082-0.232,0.169-0.349,0.257  c-0.108,0.084-0.217,0.173-0.323,0.262c-1.153,0.958-2.164,2.211-2.976,3.697c1.753,1.604,3.187,3.859,4.097,6.467  c0.086,0.247,0.168,0.495,0.245,0.748c0.074,0.246,0.144,0.494,0.209,0.745c0.389,1.506,0.612,3.098,0.616,4.734  c0.006,2.217-0.294,4.046-0.894,5.539c1.145,0.27,2.447,0.409,3.934,0.409c2.863,0,6.066-0.276,8.109-2.325  c1.579-1.583,2.342-4.064,2.333-7.586C88.231,32.811,83.289,25.911,77.883,25.911z"/>
<path d="M73.624,40.939c-0.044-0.219-0.081-0.439-0.132-0.654c-0.054-0.227-0.119-0.446-0.182-0.669  c-0.798-2.886-2.26-5.433-4.094-7.195c-0.095-0.091-0.196-0.17-0.293-0.257c-0.106-0.095-0.212-0.191-0.32-0.282  c-1.514-1.258-3.229-2.007-4.995-2.007c-1.661,0-3.233,0.554-4.633,1.529c-0.118,0.082-0.232,0.168-0.349,0.257  c-0.109,0.084-0.217,0.173-0.324,0.262c-1.153,0.958-2.164,2.211-2.976,3.697c1.754,1.604,3.188,3.859,4.098,6.467  c0.086,0.246,0.168,0.495,0.244,0.748c0.074,0.245,0.145,0.494,0.209,0.745c0.073,0.282,0.136,0.568,0.196,0.856  c0.03,0.142,0.059,0.283,0.085,0.427c0.025,0.136,0.06,0.269,0.081,0.406c0.162,0.99,0.251,2.009,0.255,3.045  c0.005,2.217-0.295,4.046-0.895,5.539c1.146,0.27,2.448,0.409,3.934,0.409c2.863,0,6.066-0.277,8.11-2.325  c0.437-0.438,0.805-0.953,1.118-1.531c0.062-0.117,0.12-0.238,0.178-0.36c0.058-0.121,0.118-0.237,0.17-0.363  c0.585-1.41,0.872-3.174,0.866-5.332C73.974,43.189,73.842,42.048,73.624,40.939z"/>
<path d="M59.388,45.103c-0.012-0.066-0.026-0.132-0.039-0.197c-0.016-0.074-0.029-0.148-0.045-0.223  c-0.03-0.144-0.054-0.29-0.087-0.433c-0.002-0.005-0.002-0.011-0.003-0.017c-0.053-0.221-0.118-0.435-0.179-0.651  c-0.797-2.887-2.26-5.433-4.094-7.195c-0.095-0.091-0.195-0.17-0.292-0.257c-0.107-0.095-0.213-0.191-0.321-0.282  c-0.362-0.302-0.732-0.582-1.116-0.82c-0.127-0.079-0.259-0.14-0.389-0.211c-0.132-0.074-0.264-0.152-0.398-0.218  c-0.991-0.484-2.032-0.757-3.092-0.757c-1.661,0-3.233,0.554-4.633,1.529c-0.118,0.082-0.232,0.168-0.349,0.257  c-0.109,0.084-0.217,0.173-0.324,0.262c-1.985,1.648-3.548,4.185-4.394,7.236c0.711,0.963,1.327,2.053,1.84,3.228  c0.115,0.262,0.222,0.526,0.325,0.796c0.081,0.216,0.163,0.431,0.238,0.651c0.307,0.909,0.55,1.856,0.72,2.837  c0.028,0.158,0.053,0.317,0.077,0.478c0.022,0.15,0.036,0.305,0.055,0.457c0.094,0.753,0.157,1.518,0.16,2.296  c0.003,1.096-0.076,2.088-0.22,3.003c1.598,0.907,3.718,1.358,6.432,1.358c2.863,0,6.066-0.276,8.109-2.325  c0.437-0.438,0.805-0.952,1.118-1.531c0.062-0.116,0.121-0.237,0.178-0.359c0.058-0.121,0.118-0.237,0.17-0.363  c0.585-1.411,0.872-3.174,0.867-5.333C59.698,47.224,59.582,46.148,59.388,45.103z"/>
</svg>