<svg xmlns="http://www.w3.org/2000/svg" xmlns:xlink="http://www.w3.org/1999/xlink" version="1.1" id="Layer_1" x="0px" y="0px" width="100px" height="100px" viewBox="0 0 100 100" enable-background="new 0 0 100 100" xml:space="preserve">
<path d="M93.405,52.071c-0.004-0.004-0.007-0.01-0.008-0.013c-0.147-0.324-0.3-0.645-0.461-0.967  c-0.007-0.012-0.013-0.021-0.015-0.03c-0.647-1.29-1.394-2.55-2.233-3.774c-0.031-0.034-0.052-0.062-0.073-0.097  c-0.197-0.288-0.406-0.576-0.619-0.862c-0.021-0.027-0.038-0.053-0.062-0.084c-0.666-0.887-1.383-1.748-2.153-2.587  c-0.016-0.017-0.027-0.027-0.04-0.042c-0.226-0.247-0.461-0.49-0.696-0.73c-0.069-0.071-0.139-0.144-0.209-0.215  c-0.229-0.227-0.459-0.456-0.695-0.675c-0.07-0.073-0.146-0.14-0.215-0.208c-0.75-0.693-1.533-1.37-2.356-2.016  c-0.114-0.086-0.223-0.178-0.339-0.265c-0.225-0.173-0.457-0.344-0.689-0.515c-0.146-0.105-0.293-0.215-0.438-0.314  c-0.227-0.16-0.453-0.318-0.683-0.475c-0.167-0.112-0.337-0.219-0.499-0.328c-0.283-0.186-0.566-0.365-0.856-0.545  c-0.305-0.187-0.612-0.371-0.925-0.553c-0.205-0.12-0.414-0.232-0.621-0.351c-0.221-0.12-0.442-0.242-0.663-0.356  c-0.21-0.113-0.424-0.22-0.634-0.329c-0.234-0.117-0.471-0.233-0.709-0.351c-0.203-0.097-0.408-0.195-0.616-0.29  c-0.286-0.131-0.573-0.258-0.862-0.386c-0.164-0.067-0.329-0.142-0.494-0.211c-0.441-0.184-0.891-0.359-1.337-0.529  c-0.171-0.064-0.351-0.129-0.521-0.188c-0.309-0.114-0.618-0.221-0.934-0.326c-0.189-0.062-0.382-0.127-0.575-0.187  c-0.313-0.1-0.633-0.195-0.952-0.288c-0.176-0.054-0.357-0.104-0.537-0.156c-0.421-0.116-0.842-0.223-1.263-0.328  c-0.083-0.024-0.163-0.042-0.246-0.061c-0.5-0.12-1.007-0.228-1.521-0.33c-0.156-0.032-0.319-0.061-0.479-0.094  c-0.364-0.065-0.73-0.13-1.1-0.188c-0.185-0.03-0.367-0.057-0.552-0.085c-0.253-0.035-0.504-0.074-0.757-0.104  c-5.67-2.292-11.117-3.526-14.703-3.847c-6.208-0.576-12.323,0.589-16.005,4.232c0.839,1.966,2.29,3.693,4.134,5.094  c-0.034,0.02-0.064,0.036-0.094,0.059c-0.007,0.007-0.016,0.01-0.024,0.016l0,0c-5.675,3.557-9.867,8.426-12.283,13.782  c-1.116-2.015-2.914-3.741-5.404-4.814c-4.786-2.099-10.896-1.063-15.233,2.229c0.156,2.007,0.9,3.86,2.088,5.444  c0.001,0.003,0.001,0.003,0.001,0.004c0.162,0.218,0.333,0.431,0.51,0.636c0.011,0.014,0.02,0.023,0.028,0.034  c0.173,0.196,0.348,0.389,0.533,0.576c0.022,0.018,0.04,0.04,0.064,0.061c0.176,0.175,0.354,0.349,0.544,0.514  c0.034,0.031,0.074,0.061,0.11,0.092c0.177,0.151,0.356,0.304,0.543,0.448c0.054,0.041,0.112,0.08,0.166,0.118  c0.178,0.131,0.35,0.262,0.53,0.385c0.075,0.05,0.153,0.094,0.229,0.14c0.167,0.111,0.334,0.221,0.512,0.325  c0.101,0.058,0.206,0.111,0.311,0.166c0.155,0.087,0.308,0.177,0.471,0.259c0.136,0.068,0.28,0.133,0.424,0.195  c0.13,0.064,0.261,0.132,0.395,0.188c0.279,0.121,0.567,0.236,0.855,0.341c0.307,0.113,0.617,0.211,0.929,0.306  c0.052,0.014,0.103,0.025,0.15,0.04c-0.193,0.319-0.371,0.648-0.534,0.992c-2.146,4.515-0.995,9.303,1.812,12.691  c4.248-0.574,7.997-3.045,10.234-7.199c1.088-2.046,1.647-4.251,1.666-6.43c3.27,2.602,6.729,4.831,10.251,6.691  c-1.421,0.831-2.439,2.217-2.877,3.825c1.542,1.891,3.803,2.942,6.108,2.614c1.875-0.27,3.443-1.402,4.481-3.019  c4.229,1.512,8.513,2.459,13.036,2.74c0.121,0.007,0.243,0.007,0.365,0.013c0.123,0.011,0.244,0.025,0.365,0.034  c6.405,0.46,12.585-0.427,18.89-2.305c6.264-1.896,12.648-4.78,18.503-8.725C95.481,57.703,94.667,54.836,93.405,52.071z   M70.788,45.909c1.501-2.748,3.427-5.188,5.764-7.243c-0.908,1.096-1.725,2.251-2.454,3.485c-4.793,8.264-4.655,17.608-2.752,25.696  c-0.589,0.147-1.747-2.821-2.438-7.095C68.273,56.481,68.11,50.908,70.788,45.909z M80.568,56.907  c-1.998-0.562-3.322-2.263-2.941-3.887c0.383-1.617,2.438-2.515,4.576-1.91c2.136,0.601,3.43,2.443,2.907,4.022  C84.594,56.714,82.565,57.47,80.568,56.907z"/>
</svg>