<svg xmlns="http://www.w3.org/2000/svg" xmlns:xlink="http://www.w3.org/1999/xlink" version="1.1" id="Layer_1" x="0px" y="0px" viewBox="0 0 100 100" enable-background="new 0 0 100 100" xml:space="preserve" height="100px" width="100px">
<g>
	<g>
		<g>
			<path d="M58.961,67.715L31.842,40.596L58.287,5l36.27,36.269L58.961,67.715z M36.595,40.248l22.713,22.713l29.744-22.096     l-30.361-30.36L36.595,40.248z"/>
		</g>
		<g>
			<path d="M42.527,80.482L18.996,56.951l10.917-13.966l26.67,26.67L42.527,80.482z M23.803,56.657l19.034,19.034l8.291-6.388     L30.243,48.418L23.803,56.657z"/>
		</g>
	</g>
	<g>
		<g>
			<circle cx="34.745" cy="81.716" r="1.681"/>
		</g>
		<g>
			<circle cx="29.405" cy="76.376" r="1.681"/>
		</g>
		<g>
			<circle cx="24.066" cy="71.037" r="1.681"/>
		</g>
		<g>
			<circle cx="18.727" cy="65.698" r="1.681"/>
		</g>
		<g>
			<circle cx="28.943" cy="87.517" r="1.681"/>
		</g>
		<g>
			<circle cx="23.604" cy="82.178" r="1.681"/>
		</g>
		<g>
			<circle cx="18.264" cy="76.839" r="1.681"/>
		</g>
		<g>
			<circle cx="12.925" cy="71.499" r="1.681"/>
		</g>
		<g>
			<circle cx="23.142" cy="93.319" r="1.681"/>
		</g>
		<g>
			<circle cx="17.802" cy="87.98" r="1.681"/>
		</g>
		<g>
			<circle cx="12.463" cy="82.64" r="1.681"/>
		</g>
		<g>
			<circle cx="7.124" cy="77.301" r="1.681"/>
		</g>
	</g>
	<g>
		<path d="M59.455,58.551L42.564,41.659c0,0,9.645-1.094,16.652,2.252c9.023,4.308,20.212,0.435,20.212,0.435L59.455,58.551z"/>
	</g>
</g>
</svg>