<svg xmlns="http://www.w3.org/2000/svg" xmlns:xlink="http://www.w3.org/1999/xlink" version="1.1" id="Layer_1" x="0px" y="0px" width="100px" height="100px" viewBox="0 0 100 100" enable-background="new 0 0 100 100" xml:space="preserve">
<path d="M94.98,7.64l-2.619-2.619c-0.772-0.773-1.797-1.171-2.829-1.171c-0.771,0-1.546,0.222-2.226,0.676l-11.891,7.96  c-1.838-0.949-3.682-1.522-5.393-1.522h-0.002c-1.692,0-3.205,0.524-4.412,1.519c-1.491-0.515-2.928-0.802-4.256-0.802  c-2.367,0-4.437,0.817-5.979,2.361L6.209,63.207c-1.553,1.553-3.767,5.107-1.137,11.455C8.958,84.045,22.139,96.15,30.813,96.15  c2.367,0,4.435-0.816,5.979-2.361l49.165-49.164c1.453-1.453,3.482-4.658,1.586-10.263c1.175-1.447,2.382-4.17,0.588-8.498  c-0.171-0.413-0.382-0.844-0.613-1.284l7.959-11.886C96.539,11.107,96.331,8.99,94.98,7.64z M70.023,14.963  c0.248,0,0.512,0.03,0.778,0.073c0.331,0.053,0.673,0.132,1.027,0.245c-0.065,0.096-0.119,0.199-0.181,0.299  c-0.352,0.583-0.594,1.223-0.696,1.911c-0.122,0.817-0.063,1.691,0.175,2.583c0.087,0.322,0.191,0.646,0.327,0.97  c1.178,2.843,4.806,6.791,8.465,7.817c0.579,0.162,1.158,0.258,1.729,0.258c0.293,0,0.578-0.037,0.859-0.081  c0.696-0.108,1.352-0.346,1.938-0.705c0.091-0.055,0.18-0.11,0.268-0.171c0.104,0.327,0.186,0.646,0.239,0.953  c0.202,1.154,0.028,2.148-0.644,2.863c-0.019,0.02-0.029,0.042-0.05,0.061l-1.432,1.431l-2.914,2.913  c-0.537,0.537-1.242,0.778-2.06,0.778c-6.035,0-18.201-13.113-14.24-17.076l2.918-2.914l1.431-1.43  c0.017-0.017,0.037-0.027,0.056-0.043C68.548,15.196,69.23,14.964,70.023,14.963z M83.979,22.674l-1.177,1.757  c-0.004,0.008-0.011,0.014-0.015,0.021c-0.055,0.114-0.118,0.223-0.212,0.316c-0.155,0.155-0.351,0.238-0.562,0.29  c-0.117,0.029-0.234,0.061-0.367,0.061c-2.476,0-7.228-4.893-6.711-7.117c0.051-0.218,0.135-0.419,0.293-0.579  c0.095-0.094,0.203-0.158,0.317-0.212c0.009-0.003,0.013-0.01,0.021-0.014l1.761-1.178l1.737-1.164l10.468-7.007l2.618,2.619  l-7.014,10.475L83.979,22.674z"/>
</svg>