<?xml version="1.0" encoding="utf-8"?>
<!-- Generator: Adobe Illustrator 16.0.0, SVG Export Plug-In . SVG Version: 6.00 Build 0)  -->
<!DOCTYPE svg PUBLIC "-//W3C//DTD SVG 1.1//EN" "http://www.w3.org/Graphics/SVG/1.1/DTD/svg11.dtd">
<svg version="1.1" id="Layer_1" xmlns="http://www.w3.org/2000/svg" xmlns:xlink="http://www.w3.org/1999/xlink" x="0px" y="0px"
	 width="87.61px" height="100px" viewBox="0 0 87.61 100" enable-background="new 0 0 87.61 100" xml:space="preserve">
<path fill="#010101" d="M27.398,95.749c0.195-0.113,0.657-0.396,1.242-0.764c-0.034,0.806,0.039,2.113,0.985,3.311
	C30.485,99.378,31.768,100,33.15,100h0.382l0.344-0.059c0.236-0.037,1.648-0.258,3.27-0.512l20.259-3.155
	c1.143-0.177,2.227-0.452,3.133-0.793c2.246-0.842,3.541-2.231,3.851-4.131c0.092-0.56,0.425-3.143,0.526-5.044
	c0.039-0.717-0.075-1.933-0.337-3.622c-0.263-1.688-0.525-2.883-0.779-3.552c-0.566-1.493-1.431-3.518-2.064-4.652l-0.24-0.519
	c-0.606-1.293-1.054-2.816-1.303-4.411s-0.283-3.186-0.103-4.601l0.073-0.565c0.26-1.276,0.464-3.463,0.551-5.059
	c0.021-0.374-0.001-0.886-0.062-1.523c0.902-0.904,1.875-1.688,2.848-2.29l0.485-0.3c1.153-0.604,2.984-1.822,4.276-2.761
	c0.581-0.421,1.454-1.276,2.599-2.542c1.144-1.268,1.909-2.223,2.268-2.843c0.802-1.385,1.83-3.325,2.312-4.534l0.25-0.513
	c0.625-1.286,1.524-2.594,2.608-3.792c0.799-0.884,1.206-1.27,1.334-1.387c1.438-1.042,3.665-2.687,5.044-3.72l0.04-0.03
	c1.738-1.305,2.792-3.255,2.89-5.349c0.094-2.092-0.776-4.129-2.392-5.585l-15.28-13.81c-1.297-1.167-2.396-2.161-2.448-2.209
	l-1.277-1.156L64.478,4.98c-1.614,0-2.562,0.654-5.312,2.716l-0.038,0.03c-1.384,1.038-3.646,2.706-5.051,3.728
	c-0.565,0.408-1.412,1.233-2.511,2.445c-0.01-0.104-0.015-0.178-0.02-0.222c0.096-1.773,0.224-4.537,0.288-6.26l0.001-0.048
	c0.077-2-0.616-3.86-1.951-5.247C48.564,0.755,46.769,0,44.822,0c-0.386,0-0.778,0.03-1.165,0.092l-20.352,3.17l-1.156,0.18
	c-1.176,0.184-2.047,0.318-2.097,0.328c-0.561,0.085-3.375,0.69-3.814,4.11c-0.029,0.241-0.059,0.541-0.089,0.915
	c-0.051,0.66-0.098,1.52-0.13,2.418l-0.001,0.051c-0.067,1.729-0.196,4.539-0.292,6.268c-0.038,0.716,0.076,1.933,0.34,3.621
	c0.38,2.449,1.065,4.743,2.035,6.82l0.319,0.688l0.101,0.214l0.121,0.201c0.18,0.308,0.85,1.75,1.456,3.322
	c0.044,0.173,0.171,0.721,0.355,1.891c0.182,1.167,0.225,1.728,0.235,1.907c-0.098,1.681-0.298,3.26-0.378,3.614l-0.055,0.229
	l-0.026,0.229l-0.098,0.752c-0.291,2.272-0.245,4.667,0.135,7.116c0.086,0.55,0.189,1.094,0.307,1.627L20.3,49.934
	c-1.948,1.204-3.776,2.747-5.438,4.587c-1.663,1.84-3.014,3.819-4.014,5.876l-0.333,0.683l-0.102,0.212l-0.08,0.221
	c-0.127,0.336-0.823,1.763-1.663,3.225c-0.106,0.143-0.451,0.588-1.243,1.464c-0.796,0.881-1.204,1.268-1.333,1.388
	c-1.268,0.915-2.239,1.563-2.526,1.735c-0.461,0.234-0.921,0.539-1.167,0.707c-0.618,0.427-2.064,1.422-2.355,3.437
	c-0.211,1.483,0.324,2.97,1.436,3.973l0.475,0.431l2.005,1.813l15.214,13.743c3.26,2.941,5.214,2.941,5.856,2.941
	C25.867,96.369,26.686,96.153,27.398,95.749z M5.634,73.292c0.353-0.168,1.795-1.145,3.206-2.171c0,0,0.495-0.357,1.907-1.918
	c1.411-1.563,1.717-2.091,1.717-2.091c0.877-1.508,1.811-3.343,2.077-4.074c0,0,0,0,0.33-0.684c0.787-1.613,1.902-3.272,3.312-4.834
	c1.197-1.323,2.486-2.442,3.781-3.328c0.231-0.158,0.461-0.312,0.694-0.454c0.645-0.397,0.645-0.397,0.645-0.397
	c0.49-0.236,1.483-0.855,2.52-1.554c0.446-0.301,0.898-0.617,1.322-0.926c0,0,0.496-0.357,1.906-1.919
	c1.411-1.562,1.719-2.09,1.719-2.09c0.875-1.509,1.808-3.344,2.074-4.075c0,0,0,0,0.333-0.682c0.204-0.42,0.43-0.841,0.679-1.265
	c0.706-1.205,1.588-2.412,2.632-3.569c0.064-0.073,0.131-0.141,0.198-0.212c0.805-0.865,1.643-1.645,2.5-2.321
	c0.587-0.463,1.184-0.884,1.776-1.25c0.647-0.401,0.647-0.401,0.647-0.401c0.7-0.337,2.428-1.451,3.843-2.477
	c0,0,0.26-0.191,0.938-0.886c0.259-0.266,0.577-0.603,0.967-1.035c1.409-1.561,1.718-2.091,1.718-2.091
	c0.404-0.694,0.818-1.456,1.174-2.15c0.42-0.812,0.757-1.531,0.9-1.925c0,0,0,0,0.332-0.683c0.381-0.78,0.838-1.572,1.369-2.356
	c0.564-0.839,1.214-1.67,1.941-2.478c1.41-1.561,1.907-1.92,1.907-1.92c1.412-1.025,3.71-2.719,5.105-3.766l0.043-0.031
	c1.356-1.019,2.516-1.822,2.624-1.822c0.004,0,0.006,0.001,0.006,0.001c0.053,0.048,1.153,1.041,2.449,2.212l4.356,3.937
	l-4.315,3.237c-1.66,1.036-3.296,2.419-4.732,4.009c-1.448,1.603-2.668,3.387-3.531,5.16c-0.343,0.705-0.632,1.413-0.861,2.111
	c-0.375,0.762-0.828,1.532-1.344,2.284c-0.537,0.785-1.141,1.553-1.802,2.283c-1.014,1.125-2.134,2.127-3.284,2.957
	c-0.312,0.226-0.628,0.439-0.943,0.636c-0.67,0.299-1.35,0.659-2.01,1.068c-0.823,0.508-1.639,1.104-2.429,1.767
	c-0.819,0.689-1.611,1.451-2.351,2.269c-1.448,1.603-2.668,3.387-3.529,5.159c-0.131,0.271-0.254,0.545-0.369,0.814
	c-0.186,0.435-0.352,0.868-0.492,1.297c-0.222,0.447-0.471,0.896-0.74,1.343c-0.42,0.697-0.899,1.387-1.424,2.056
	c-0.312,0.399-0.638,0.789-0.981,1.171c-1.291,1.426-2.752,2.667-4.23,3.592c-0.669,0.298-1.345,0.656-2.013,1.067
	c-0.282,0.175-0.564,0.365-0.846,0.562c-1.38,0.958-2.725,2.144-3.929,3.475c-0.109,0.121-0.213,0.242-0.32,0.363
	c-1.307,1.508-2.414,3.156-3.213,4.797c-0.342,0.705-0.632,1.416-0.86,2.111c-0.769,1.562-1.855,3.139-3.146,4.568
	c-1.291,1.427-2.749,2.666-4.229,3.591c-0.645,0.287-1.298,0.634-1.942,1.027l-4.458-4.028c-1.294-1.17-2.412-2.181-2.483-2.242
	C4.411,74.052,5.284,73.46,5.634,73.292z M55.775,40.275c-0.774,0.655-1.56,1.229-2.346,1.715c-0.626,0.275-1.266,0.61-1.905,1.004
	c-0.005,0.003-0.011,0.007-0.014,0.012c-1.527,0.942-3.065,2.219-4.476,3.782c-0.036,0.04-0.07,0.083-0.107,0.123
	c-1.358,1.527-2.437,3.14-3.204,4.711c-0.332,0.683-0.604,1.357-0.813,2.014c-0.194,0.398-0.408,0.799-0.642,1.202
	c-0.497,0.854-1.084,1.71-1.752,2.548c-0.291,0.364-0.595,0.729-0.917,1.082c-0.324,0.359-0.653,0.702-0.988,1.025
	c-1.126,1.104-2.311,2.032-3.487,2.76c-0.63,0.276-1.273,0.614-1.921,1.015c-1.409,0.869-2.824,2.03-4.144,3.43
	c-0.11,0.116-0.221,0.231-0.331,0.354c-1.411,1.559-2.526,3.22-3.312,4.832c-0.332,0.684-0.603,1.357-0.814,2.014
	c-0.075,0.154-0.156,0.31-0.236,0.464c-0.766,1.466-1.798,2.958-3.074,4.371c-1.411,1.561-2.947,2.838-4.474,3.782
	c-0.631,0.275-1.274,0.613-1.921,1.013l-1.732-1.564c0.392-0.217,0.785-0.416,1.171-0.584l0.073-0.032l0.067-0.04
	c1.678-1.041,3.329-2.435,4.776-4.037c1.449-1.602,2.669-3.385,3.532-5.159l0.034-0.071l0.025-0.076
	c0.198-0.62,0.457-1.258,0.766-1.894c0.191-0.392,0.402-0.784,0.63-1.175c0.699-1.192,1.565-2.372,2.55-3.464
	c0.805-0.89,1.675-1.707,2.576-2.42c0.564-0.445,1.139-0.854,1.717-1.214c0.602-0.369,1.208-0.694,1.807-0.953l0.074-0.031
	l0.067-0.043c1.676-1.036,3.326-2.434,4.776-4.035c0.066-0.072,0.125-0.147,0.188-0.219c0.603-0.683,1.163-1.394,1.672-2.121
	c0.52-0.744,0.987-1.505,1.391-2.267c0.096-0.184,0.191-0.368,0.28-0.554l0.036-0.072l0.025-0.075
	c0.199-0.62,0.457-1.259,0.765-1.895c0.771-1.585,1.873-3.191,3.18-4.638c0.303-0.334,0.616-0.657,0.932-0.969
	c1.065-1.04,2.209-1.952,3.362-2.664c0.552-0.342,1.11-0.639,1.662-0.888c0.048-0.023,0.098-0.046,0.146-0.069l0.141-0.072
	c1.583-0.979,3.141-2.282,4.529-3.772c0.082-0.087,0.164-0.173,0.248-0.262c1.448-1.604,2.669-3.388,3.529-5.159l0.035-0.074
	l0.024-0.075c0.201-0.62,0.458-1.261,0.768-1.893c0.772-1.586,1.871-3.19,3.181-4.641c1.307-1.449,2.793-2.705,4.293-3.633
	l4.786-3.584l1.953,1.767l-5.12,3.838c-1.524,0.944-3.061,2.219-4.473,3.782s-2.525,3.22-3.311,4.833
	c-0.33,0.685-0.604,1.358-0.814,2.013c-0.785,1.616-1.898,3.273-3.311,4.834C57.218,38.966,56.504,39.653,55.775,40.275z
	 M22.499,87.644c1.525-0.944,3.064-2.221,4.472-3.782c0.109-0.119,0.21-0.239,0.313-0.357c1.215-1.401,2.195-2.871,2.913-4.309
	c0.026-0.056,0.058-0.111,0.085-0.167c0.21-0.658,0.483-1.332,0.814-2.015c0.787-1.614,1.902-3.271,3.312-4.833
	c1.167-1.29,2.418-2.383,3.678-3.257c0.264-0.186,0.531-0.361,0.795-0.525c0.511-0.318,1.023-0.597,1.528-0.836
	c0.131-0.061,0.263-0.122,0.394-0.177c0.697-0.433,1.398-0.939,2.088-1.506c0.816-0.673,1.62-1.432,2.385-2.279
	c1.41-1.561,2.525-3.218,3.31-4.833c0.212-0.656,0.482-1.333,0.813-2.014c0.254-0.523,0.544-1.048,0.868-1.574
	c0.673-1.103,1.488-2.205,2.441-3.261c0.439-0.483,0.89-0.937,1.347-1.366c1.019-0.95,2.077-1.763,3.129-2.415
	c0.173-0.107,0.345-0.208,0.517-0.307c0.472-0.271,0.941-0.507,1.405-0.71c1.524-0.942,3.062-2.22,4.473-3.782
	c1.41-1.563,2.525-3.22,3.311-4.833c0.21-0.655,0.48-1.331,0.814-2.013c0.785-1.616,1.9-3.272,3.311-4.836
	c1.41-1.561,2.946-2.838,4.474-3.783l5.117-3.839l-5.492-4.964l-0.156-0.139l7.248,6.549c1.294,1.169,1.211,2.98-0.185,4.028
	l-0.043,0.032c-1.396,1.045-3.693,2.742-5.104,3.767c0,0-0.496,0.358-1.906,1.921c-1.409,1.561-2.525,3.219-3.311,4.833
	c-0.332,0.684-0.332,0.684-0.332,0.684c-0.267,0.732-1.198,2.565-2.076,4.073c0,0-0.307,0.529-1.717,2.091
	c-1.41,1.561-1.907,1.919-1.907,1.919c-1.412,1.025-3.143,2.141-3.84,2.478c0,0,0,0-0.649,0.399
	c-0.462,0.287-0.923,0.609-1.384,0.951c-1.059,0.797-2.104,1.743-3.087,2.833c-0.255,0.28-0.495,0.564-0.729,0.849
	c-1.07,1.308-1.938,2.661-2.584,3.985c-0.333,0.683-0.333,0.683-0.333,0.683c-0.264,0.732-1.197,2.563-2.076,4.073
	c0,0-0.137,0.235-0.644,0.854c-0.255,0.31-0.602,0.715-1.073,1.235c-1.411,1.563-1.906,1.923-1.906,1.923
	c-1.413,1.025-3.142,2.138-3.842,2.477c0,0-0.002,0.001-0.584,0.361c-0.022,0.014-0.042,0.025-0.062,0.037
	c-0.711,0.442-1.424,0.956-2.125,1.535c-0.647,0.534-1.284,1.122-1.899,1.767c-0.15,0.158-0.301,0.318-0.45,0.481
	c-1.411,1.559-2.528,3.22-3.31,4.832c-0.332,0.684-0.332,0.684-0.332,0.684c-0.251,0.688-1.095,2.36-1.925,3.812
	c-0.051,0.088-0.101,0.175-0.151,0.26c0,0-0.309,0.53-1.719,2.093c-1.411,1.562-1.905,1.919-1.905,1.919
	c0,0.003-0.001,0.003-0.003,0.005c-1.413,1.021-3.486,2.301-3.841,2.504c-0.037,0.021-0.086,0.031-0.145,0.031
	c-0.496,0-1.698-0.742-2.854-1.789l-1.599-1.445C21.223,88.257,21.866,87.919,22.499,87.644z M36.457,95.007
	c-1.725,0.269-3.213,0.501-3.305,0.514c-0.002,0-0.002,0-0.002,0c-0.092,0,0-1.04,0.088-1.416c0.073-0.308,0.187-1.508,0.276-2.88
	c0.23-0.242,0.473-0.506,0.732-0.792c1.145-1.268,1.908-2.223,2.268-2.842c0.803-1.384,1.832-3.326,2.312-4.534l0.251-0.515
	c0.407-0.836,0.934-1.686,1.55-2.507c0.197,0.361,0.403,0.711,0.618,1.042c0.729,1.582,1.27,3.42,1.568,5.322
	c0.295,1.9,0.337,3.817,0.124,5.546c-0.18,0.672-0.32,1.383-0.418,2.117L36.457,95.007z M45.022,86.055
	c-0.331-2.133-0.949-4.206-1.782-5.992l-0.034-0.072l-0.045-0.068c-0.343-0.526-0.663-1.105-0.954-1.724
	c0.593-0.606,1.218-1.158,1.854-1.642c0.169,0.45,0.351,0.883,0.545,1.297c0.322,0.689,0.672,1.324,1.051,1.901
	c0.76,1.626,1.345,3.537,1.67,5.616c0.321,2.081,0.348,4.077,0.117,5.858c-0.181,0.663-0.325,1.377-0.421,2.131L44.839,93.7
	c0.077-0.427,0.168-0.841,0.276-1.238l0.023-0.074l0.01-0.08C45.398,90.351,45.355,88.189,45.022,86.055z M60.152,83.374
	c0.323,2.08,0.29,2.691,0.29,2.691c-0.094,1.743-0.409,4.161-0.476,4.565c-0.063,0.402-1.529,0.951-3.253,1.221l-2.129,0.332
	c0.096-0.753,0.238-1.464,0.421-2.13c0.229-1.779,0.205-3.777-0.119-5.857c-0.324-2.079-0.91-3.991-1.669-5.616
	c-0.376-0.581-0.729-1.215-1.051-1.902c-0.631-1.353-1.14-2.901-1.479-4.582c0.507-0.467,1.127-1.109,1.861-1.922
	c1.145-1.268,1.908-2.224,2.27-2.845c0.219-0.375,0.454-0.796,0.691-1.23c-0.047,1.314,0.029,2.707,0.255,4.142
	c0.323,2.081,0.908,3.99,1.667,5.616c0.321,0.688,0.321,0.688,0.321,0.688c0.399,0.667,1.236,2.547,1.856,4.178
	C59.609,80.722,59.829,81.294,60.152,83.374z M44.346,4.516c0.161-0.025,0.32-0.036,0.475-0.036c1.491,0,2.599,1.139,2.538,2.717
	v0.056c-0.067,1.741-0.197,4.592-0.293,6.337c0,0-0.033,0.61,0.291,2.689c0.145,0.925,0.344,1.814,0.581,2.664
	c-0.166,0.306-0.329,0.617-0.48,0.931l-0.333,0.681l-0.102,0.212l-0.079,0.222c-0.128,0.333-0.825,1.761-1.666,3.224
	c-0.055,0.075-0.185,0.244-0.414,0.517c-0.017-0.038-0.033-0.077-0.051-0.113c-0.377-0.579-0.73-1.213-1.052-1.902
	c-0.757-1.625-1.343-3.538-1.668-5.617c-0.324-2.079-0.348-4.079-0.12-5.858l0.243-6.392l-0.599,0.091L44.346,4.516z M34.53,18.279
	c0.324,2.08,0.909,3.99,1.668,5.614c0.322,0.69,0.675,1.325,1.05,1.903c0.546,1.165,0.998,2.478,1.33,3.892
	c-0.721,0.447-1.426,0.94-2.112,1.479c-0.339-2.066-0.94-4.068-1.75-5.798l-0.033-0.074l-0.045-0.066
	c-0.355-0.548-0.69-1.148-0.987-1.788c-0.746-1.599-1.299-3.464-1.601-5.392c-0.301-1.93-0.34-3.875-0.118-5.623l0.234-6.012
	l2.484-0.388l-0.242,6.394C34.184,14.2,34.207,16.199,34.53,18.279z M20.489,20.465c-0.325-2.078-0.292-2.688-0.292-2.688
	c0.095-1.743,0.225-4.595,0.292-6.34l0.001-0.051c0.066-1.746,0.175-3.18,0.245-3.191c0.068-0.011,1.534-0.239,3.259-0.508
	l5.923-0.923l-0.208,5.428c-0.242,1.94-0.197,4.083,0.131,6.202c0.333,2.133,0.951,4.205,1.784,5.992
	c0.331,0.71,0.698,1.38,1.098,1.996c0.729,1.583,1.27,3.421,1.565,5.322c0.064,0.413,0.114,0.823,0.155,1.231
	c-0.435,0.422-0.862,0.862-1.277,1.323c-1.663,1.841-3.014,3.817-4.016,5.878l-0.332,0.683l-0.103,0.211l-0.08,0.221
	c-0.128,0.334-0.823,1.762-1.665,3.222c-0.106,0.144-0.448,0.59-1.242,1.467c-0.516,0.572-0.868,0.935-1.087,1.152
	c-0.274-1.953-0.286-3.825-0.072-5.503c0.098-0.754,0.098-0.754,0.098-0.754c0.178-0.759,0.403-2.804,0.496-4.544
	c0,0,0.034-0.611-0.289-2.69c-0.324-2.08-0.541-2.651-0.541-2.651c-0.621-1.63-1.456-3.51-1.856-4.179c0,0,0,0-0.322-0.688
	C21.397,24.457,20.812,22.545,20.489,20.465z"/>
</svg>
