<svg xmlns="http://www.w3.org/2000/svg" xmlns:xlink="http://www.w3.org/1999/xlink" version="1.1" id="Layer_5" x="0px" y="0px" width="100px" height="100px" viewBox="0 0 100 100" enable-background="new 0 0 100 100" xml:space="preserve">
<path d="M61.701,82.309l2.404-8.625c0,0-0.25-2.125-1.75-3.75s-4.875-8.125-4.875-9.25s-0.25-3.25-3,0s-2.75-1.375-2.25-3.125  s3.375-9.25,3.375-9.25s2.375-5.5,10.375,0c0,0-7.5-1.375-7.5,1.25s-0.193,7.375,4.466,8s16.784-2,16.784-2l3.875-0.875  c0,0,6.375-1.875,7.125,10.625c0,0,1.68,5.559,2.75,7c0.872,1.175,1.539,6.403,1.539,7.028l-2.039,0.097l-1-2.875l-1.25-2.5  c0,0-6.816-5.649-7.625-6.25c-1.063-0.79-3.5-1.375-5.25-0.875s-7.75-1-9.875,5.5s-4.25,9.875-4.25,9.875H61.701z"/>
<rect x="8.358" y="60.821" transform="matrix(0.6947 0.7193 -0.7193 0.6947 53.4884 -3.3874)" width="44.754" height="1"/>
<path d="M26.47,68.944c0.295,0.238,0.654,0.524,0.698,0.573c0.023,0.023,1.659,1.187,1.19,5.992l0.701-0.154  c0.964-5.422-1.698-7.688-1.805-7.797l-0.633-0.751c0,0-0.89-1.374-2.015-1.187c0,0-0.521-0.986,0.114-1.274  c0.168-0.076,0.363,0.087,0.557,0.087c1.036,0,1.875-0.867,1.875-1.938s-0.839-1.938-1.875-1.938s-1.875,0.867-1.875,1.938  c0,0.225,0.071,0.431,0.105,0.64c0.105,0.64-1.526,1.673-3.089-0.077s0.727-9.71,0.727-9.71l-0.498-0.624  c0,0-2.417,4.334-2.167,10.959s-4.812,14.25-4.812,14.25s2.312-1,2.312,0s-3.125,3.625-3.125,3.625L4.98,84.934v1.625l7.745-3.25  c0,0,1.88-0.75,2.505-1.375s2.75-3.75,2.75-3.75s1.625-2.625,3.625,0.5s8,11.375,8,11.375h1.875l-8.875-15.25  c0,0-1.758-3.763,1.375-4.625c0.554-0.152,1.207-0.7,1.632-1.104C25.613,69.08,25.961,68.534,26.47,68.944z"/>
<path d="M24.777,69.934"/>
<path d="M61.701,40.45"/>
<path d="M24.413,19.823 M24.413,19.823c0.077-0.862,0.406-1.299,1.153-1.958c1.263-1.114,3.384-1.014,6.485,0.306  c10.758,4.576,16.029,1.803,16.082,1.774l0.14-0.064c0,0,3.926-5.066,4.051-5.191s-12.259,7.484-24.552-5.225  c0,0,13.75,9.917,26.084,2.833c0,0,4.334-2.75,8.084-1.667s1.666,2.749,4.666,4.125c4.447,2.039,0.416,3.792,0.416,3.792  c-4.917-2.708-4.208-1.583-4.208-1.583s5.417,6.708,1.458,2.542s-4.833-1.125-4.833-1.125s-2.588,6.955-3.793,10.1l0.232,0.478  l3.687,8.595l-2.544,1.78l-2.582-6.701v5.815l-2.27,1.068l-0.136-0.61c-0.106-0.479-0.166-1.11-0.235-1.839  c-0.149-1.579-0.376-3.964-1.292-4.359c-0.545-0.237-1.368,0.27-1.966,0.735c-4.49,3.489-11.575,2.931-14.756,1.212  c-0.995-0.537-1.843-0.709-2.453-0.497c-0.556,0.193-0.756,0.646-0.764,0.665L28.01,40.45l-2.14-1.091l2.718-6.013l-1.126-0.375  l-4.068,5.6l-2.118-0.985l0.335-0.487c1.732-2.521,4.44-6.968,4.331-8.172c-0.022-0.246-0.19-0.839-0.385-1.527  c-0.19-0.671-0.41-1.449-0.607-2.271l-0.124,0.191c0,0-0.984,3.833-2.703,6.708s-2.703,3.583-2.703,3.583  c3.125-4.812,4.983-15.683,4.983-15.683L24.413,19.823z M54.176,28.047c-0.085-0.712-0.102-1.193-0.102-1.509  c0-0.906-1.312-0.281-1.312-0.281s-1.49,0.642-1.781,0.812c-0.312,0.183-0.71,0.242-0.772-0.092l-1.816-6.031  c-0.228,0.128-5.47,2.934-16.732-1.855c-2.672-1.137-4.5-1.295-5.433-0.476c-1.695,1.493-0.403,6.059,0.291,8.512  c0.225,0.796,0.388,1.371,0.418,1.708c0.157,1.719-2.963,6.545-4.17,8.341l0.302,0.141l4.015-5.527l2.874,0.958l-2.782,6.153  l0.358,0.183l2.118-4.661c0.005-0.014,0.348-0.847,1.323-1.201c0.901-0.325,2.007-0.141,3.286,0.551  c3.012,1.628,9.667,1.988,13.667-1.121c1.195-0.931,2.171-1.213,2.976-0.864c1.459,0.63,1.688,3.049,1.891,5.183  c0.037,0.388,0.072,0.763,0.114,1.091l0.531-0.25l0.074-6.281l1.06-0.529l2.95,6.758l0.79-0.552l-3.071-7.229L54.176,28.047z"/>
</svg>