<?xml version="1.0" encoding="utf-8"?>
<!-- Generator: Adobe Illustrator 16.0.0, SVG Export Plug-In . SVG Version: 6.00 Build 0)  -->
<!DOCTYPE svg PUBLIC "-//W3C//DTD SVG 1.1//EN" "http://www.w3.org/Graphics/SVG/1.1/DTD/svg11.dtd">
<svg version="1.1" id="Layer_1" xmlns="http://www.w3.org/2000/svg" xmlns:xlink="http://www.w3.org/1999/xlink" x="0px" y="0px"
	 width="77.612px" height="100px" viewBox="0 0 77.612 100" enable-background="new 0 0 77.612 100" xml:space="preserve">
<g>
	<path fill="#010101" d="M72.446,6.158c-2.12-1.247-4.981-2.354-8.504-3.285C56.953,1.022,48.028,0,38.807,0
		C29.586,0,20.661,1.021,13.67,2.874C10.148,3.803,7.287,4.91,5.167,6.158C0.898,8.668,0,11.638,0,13.687v13.022v1.13l0.477,1.024
		l1.12,2.404l10.728,56.14c0.354,2.373,1.989,6.589,8.741,9.548C25.614,98.947,31.749,100,38.807,100S52,98.947,56.546,96.956
		c6.742-2.954,8.382-7.158,8.739-9.537L76.3,31.032l0.961-2.467l0.351-0.896v-0.962V13.684C77.612,11.637,76.716,8.666,72.446,6.158
		z M21.737,36.862c1.521-3.34,3.531-4.533,7.535-4.533c3.941,0,7.78,2.9,8.258,6.227v6.116c-5.376,0.039-10.397,0.315-14.713,0.772
		L21.737,36.862z M54.798,45.445c-4.317-0.458-9.338-0.733-14.714-0.772v-6.13c0.488-3.32,4.32-6.214,8.259-6.214
		c4.004,0,6.014,1.193,7.536,4.533L54.798,45.445z M19.165,36.877l1.116,8.865c-4.618,0.605-8.215,1.429-10.265,2.383l-3.5-18.307
		c0.008-0.005,0.017-0.008,0.023-0.01c1.101-0.516,2.617-0.797,4.265-0.797C15.45,29.01,18.107,31.509,19.165,36.877z
		 M67.747,48.196c-2.022-0.985-5.681-1.836-10.412-2.454l1.116-8.865c1.055-5.368,3.713-7.868,8.359-7.868
		c1.72,0,3.279,0.304,4.389,0.858c0.038,0.021,0.079,0.029,0.117,0.045L67.747,48.196z M72.506,13.686v13.023l-0.314,0.807
		c-1.443-0.682-3.343-1.061-5.382-1.061c-4.931,0-8.289,2.325-10.022,6.917c-1.89-2.519-4.511-3.597-8.446-3.597
		c-3.896,0-7.624,2.147-9.535,5.142c-1.91-2.995-5.639-5.142-9.536-5.142c-3.935,0-6.555,1.078-8.445,3.597
		c-1.733-4.592-5.091-6.917-10.021-6.917c-2.01,0-3.904,0.367-5.334,1.036l-0.363-0.781V13.687c0-4.237,15.087-8.579,33.7-8.579
		C57.419,5.108,72.506,9.449,72.506,13.686z"/>
	<path fill="#010101" d="M38.552,17.605c-16.045,0-25.151-1.995-27.14-3.239c0.525-0.384,1.743-0.986,4.059-1.272
		c0.7-0.086,1.197-0.722,1.112-1.423c-0.087-0.7-0.722-1.198-1.421-1.112c-3.079,0.377-5.409,1.411-6.237,2.765
		c-0.34,0.558-0.42,1.16-0.224,1.698c0.266,0.728,0.893,2.43,9.7,3.81c5.467,0.853,12.623,1.326,20.151,1.326
		c7.554,0,14.799-0.474,20.398-1.326c9.072-1.386,9.696-3.083,9.961-3.81c0.196-0.537,0.117-1.14-0.223-1.698
		c-0.827-1.354-3.159-2.388-6.237-2.765c-0.703-0.086-1.336,0.412-1.42,1.112c-0.086,0.701,0.409,1.337,1.11,1.423
		c2.268,0.28,3.484,0.86,4.025,1.247c-0.742,0.429-2.806,1.276-8.198,2.055C52.582,17.177,45.685,17.605,38.552,17.605z"/>
</g>
</svg>
